<svg xmlns="http://www.w3.org/2000/svg" fill-rule="evenodd" clip-rule="evenodd" image-rendering="optimizeQuality" shape-rendering="geometricPrecision" text-rendering="geometricPrecision" viewBox="0 0 512 512"><path fill="#0787d0" d="M388 0h12l2 2 4 2c7 6 9 13 6 23l-3 5c-42 41-84 82-125 125l176 1c10 0 19 4 28 11 0 1 1 2 3 2l7 7c-1 1 0 2 2 3l1 1c-1 1 0 2 2 3 4 6 7 13 9 21v258l-8 19c-2 0-3 1-2 3-2 0-3 1-2 3l-2 2-7 7-2 2c-2-1-3 0-3 2-2-1-3 0-3 2l-19 8H48l-19-8c-1-2-2-3-3-2-1-2-2-3-3-2l-2-2-7-7-2-2c0-2-1-3-2-3 0-2-1-3-2-3-4-7-7-13-8-19V206c1-8 4-15 9-21l2-3 1-1 2-3 7-7 3-2c8-7 17-11 28-11l176-1a3083 3083 0 0 0-69-71c-3-6-3-12 1-17l4-5c3-4 7-6 12-5 5-1 10 1 14 5l66 66A11046 11046 0 0 0 388 0Zm-41 216 8 8c5 8 9 18 12 29a450 450 0 0 1-6 182l-7 11-8 8-1 1c-2-1-3 0-3 2-1-1-2 0-2 1-2-1-3 0-3 2-23 7-47 11-71 11H149c-26 0-51-4-74-12-1-2-2-3-3-2-1-2-2-3-3-2l-4-3-5-5c0-2-1-3-2-3-8-13-13-27-15-42-4-39-4-78-2-116 1-17 4-34 10-49 3-6 6-11 10-15l4-4a1868 1868 0 0 1 13-9c19-7 38-11 59-11l70-1 71 1c16 1 32 3 48 7 7 2 14 6 21 11Zm114 45c0 1 1 2 3 2l2 2c-1 1 0 2 2 3 6 11 6 23 0 35-2 0-3 1-2 3-2 0-3 1-3 3-2-1-3 0-3 2-12 6-24 6-35-1-1-2-2-3-3-2-1-3-2-4-4-5 0-2-1-3-2-3-4-10-4-20 0-29l2-3 1-1 2-3 4-3c12-8 24-8 36 0Zm-2 77 4 3 4 4c-1 1 0 2 2 3 5 12 5 23-2 35-2 0-3 1-2 3-2 0-4 1-4 3-13 7-25 7-37-1l-5-5-2-3c0-2-1-3-2-3-4-11-3-21 3-30l2-3 3-3 3-2 3-2c10-5 20-4 30 1Z"/><path fill="#2a2a2a" d="M402 2c1-1 3 0 4 2l-4-2Z" opacity=".8"/><path fill="#2f2f2f" d="M381 5 256 130a3083 3083 0 0 1 0-2A21301 21301 0 0 0 381 5Z" opacity=".8"/><path fill="#303336" d="m164 64-4 5c0-3 1-4 4-5Z" opacity=".8"/><path fill="#323232" d="m159 86 2 4c-2-1-3-3-2-4Z" opacity=".4"/><path fill="#30363a" d="M409 32 286 156a15089 15089 0 0 1-2 1c41-43 83-84 125-125Z" opacity=".1"/><path fill="#323435" d="m162 91 66 66a7746 7746 0 0 1-2-1c-22-21-44-43-64-65Z" opacity=".5"/><path fill="#292929" d="m24 169-3 2c0-2 1-3 3-2Z" opacity=".4"/><path fill="#282828" d="M488 169c1-1 2 0 3 2-2 0-3-1-3-2Z" opacity=".4"/><path fill="#34373a" d="m14 178-2 3c-1-2 0-3 2-3Zm484 0c1 0 2 1 2 3-2-1-3-2-2-3Z" opacity=".6"/><path fill="#343434" d="m11 182-2 3c-1-2 0-3 2-3Zm490 0c1 0 2 1 2 3-2-1-3-2-2-3Z" opacity=".5"/><path fill="#2b2b2c" d="M347 216c3 1 6 4 8 8l-8-8Z" opacity=".6"/><path fill="#33373a" d="m65 218-4 4c0-3 1-4 4-4Z" opacity=".1"/><path fill="#fd7f00" d="M186 222h42a4607 4607 0 0 0 14 6l3 3c-1 1 0 2 2 3l3 10 1 76a684 684 0 0 1 40 3l-3 6a3463 3463 0 0 1-77 75h-8c-1-2-2-3-3-2l-13-12a472 472 0 0 0-53-53c-3-5-6-8-10-11l-1-2c0-2 1-4 3-4h37v-76l4-10 2-3c0-2 1-3 3-3l3-2 11-4Z"/><path fill="#1a1a1a" d="M186 222Z" opacity=".2"/><path fill="#191919" d="M228 222Z" opacity=".2"/><path fill="#212121" d="m175 226-3 2c0-2 1-3 3-2Z" opacity=".7"/><path fill="#1b1b1b" d="M239 226c1-1 2 0 3 2-2 0-3-1-3-2Z" opacity=".1"/><path fill="#212121" d="m169 231-2 3c-1-2 0-3 2-3Zm76 0c1 0 2 1 2 3-2-1-3-2-2-3Z" opacity=".8"/><path fill="#1e1d1d" d="m167 234-4 10v76h-37c-2 0-3 2-3 4-2-3-1-4 2-5h37v-76c0-4 2-7 5-9Z" opacity=".2"/><path fill="#1d1d1d" d="M247 234c2 2 4 5 4 9l1 76h37c3 3 3 7-1 10l3-6-3-3h-37l-1-76-3-10Z" opacity=".2"/><path fill="#393939" d="M461 261c1-1 2 0 3 2-2 0-3-1-3-2Z" opacity=".6"/><path fill="#303030" d="m421 264-2 3c-1-2 0-3 2-3Z" opacity=".1"/><path fill="#303030" d="M466 265c1 0 2 1 2 3-2-1-3-2-2-3Z" opacity=".4"/><path fill="#272e33" d="m418 268-2 3c-1-2 0-3 2-3Z" opacity=".3"/><path fill="#292929" d="M416 300c1 0 2 1 2 3-2-1-3-2-2-3Z" opacity=".4"/><path fill="#363636" d="m468 303-2 3c-1-2 0-3 2-3Z" opacity=".7"/><path fill="#2f2f2f" d="M422 308c1-1 2 0 3 2-2 0-3-1-3-2Z" opacity=".4"/><path fill="#333" d="m463 309-3 2c0-2 1-3 3-2Z" opacity=".8"/><path fill="#2c241e" d="M124 326c4 3 7 6 10 11-5-4-8-7-10-11Z" opacity=".1"/><path fill="#372d24" d="m134 337 19 18 1 2-20-20Z" opacity=".8"/><path fill="#323232" d="m420 344-2 3c-1-2 0-3 2-3Z" opacity=".5"/><path fill="#303030" d="M467 345c1 0 2 1 2 3-2-1-3-2-2-3Z" opacity=".5"/><path fill="#392d23" d="M154 357h2a472 472 0 0 1-2 0Z" opacity=".8"/><path fill="#272e33" d="M415 377c1 0 2 1 2 3-2-1-3-2-2-3Z" opacity=".4"/><path fill="#363636" d="m467 383-2 3c-1-2 0-3 2-3Z" opacity=".7"/><path fill="#373a3d" d="m419 383 5 5c-3-1-5-3-5-5Z" opacity=".4"/><path fill="#2c3238" d="m465 386-4 3c0-2 2-3 4-3Z" opacity=".7"/><path fill="#f47c09" d="M110 427c-1 1 0 3 2 4l1 1 4 2h180l4-2 1-1 2-4v-37h18v38l-4 12-8 8-12 4H116l-12-4-8-8-4-12v-38h18v37Z"/><path fill="#141414" d="m218 399-5 4c1-3 2-4 5-4Z" opacity=".1"/><path fill="#1e1e1e" d="M200 402c1-1 2 0 3 2-2 0-3-1-3-2Z" opacity=".4"/><path fill="#262320" d="M203 404h8c-3 2-6 2-8 0Z" opacity=".8"/><path fill="#171717" d="m110 427 2 4c-2-1-3-3-2-4Z" opacity=".3"/><path fill="#1a1a1a" d="m304 427-2 4c0-2 0-3 2-4Z" opacity=".3"/><path fill="#181818" d="m113 432 4 2-4-2Zm188 0-4 2c1-2 2-2 4-2Z" opacity=".3"/><path fill="#1d1c1c" d="m92 428 4 12c-4-4-5-8-4-12Zm230 0c0 4-1 8-4 12l4-12Z" opacity=".4"/><path fill="#292c2f" d="m363 431-2 4c0-2 0-3 2-4Z" opacity=".3"/><path fill="#1c1c1c" d="m96 440 8 8c-4-2-7-5-8-8Z" opacity=".1"/><path fill="#2f2f2f" d="M58 444c1 0 2 1 2 3-2-1-3-2-2-3Z" opacity=".8"/><path fill="#1d1c1b" d="m104 448 12 4c-5 0-9-1-12-4Z" opacity=".1"/><path fill="#282828" d="M69 455c1-1 2 0 3 2-2 0-3-1-3-2Z" opacity=".4"/><path fill="#313638" d="m345 455-3 2c0-2 1-3 3-2Z" opacity=".8"/><path fill="#283036" d="M72 457c1-1 2 0 3 2-2 0-3-1-3-2Z" opacity=".3"/><path fill="#292929" d="m340 458-3 2c0-2 1-3 3-2Z" opacity=".6"/><path fill="#282828" d="M8 483c1 0 2 1 2 3-2-1-3-2-2-3Zm496 0-2 3c-1-2 0-3 2-3Z" opacity=".2"/><path fill="#292929" d="M10 486c1 0 2 1 2 3-2-1-3-2-2-3Z" opacity=".4"/><path fill="#2e2e2e" d="m14 491 7 7c-4-2-6-4-7-7Z" opacity=".1"/><path fill="#292929" d="M23 500c1-1 2 0 3 2-2 0-3-1-3-2Zm3 2c1-1 2 0 3 2-2 0-3-1-3-2Z" opacity=".5"/></svg>